<?xml version="1.0" standalone="no"?>
<!DOCTYPE svg PUBLIC "-//W3C//DTD SVG 20010904//EN"
 "http://www.w3.org/TR/2001/REC-SVG-20010904/DTD/svg10.dtd">
<svg version="1.0" xmlns="http://www.w3.org/2000/svg"
 width="1200.000000pt" height="1200.000000pt" viewBox="0 0 1200.000000 1200.000000"
 preserveAspectRatio="xMidYMid meet">
<metadata>
Created by potrace 1.11, written by Peter Selinger 2001-2013
</metadata>
<g transform="translate(0.000000,1200.000000) scale(0.100000,-0.100000)"
fill="#000000" stroke="none">
<path d="M5610 11979 c-1457 -106 -2765 -691 -3789 -1694 -758 -743 -1285
-1621 -1577 -2623 -414 -1427 -277 -2971 382 -4302 296 -599 636 -1076 1109
-1559 489 -498 1019 -879 1659 -1192 1175 -573 2514 -741 3806 -478 1559 319
2933 1254 3812 2594 204 311 415 713 548 1045 682 1699 547 3623 -365 5210
-463 805 -1123 1506 -1906 2023 -990 654 -2128 992 -3314 986 -137 -1 -302 -6
-365 -10z m765 -619 c716 -52 1377 -233 2015 -551 542 -271 986 -592 1420
-1028 413 -415 732 -859 999 -1391 290 -581 462 -1171 538 -1855 25 -226 25
-840 0 -1070 -63 -574 -196 -1086 -414 -1588 -353 -817 -893 -1519 -1606
-2091 -26 -21 -50 -36 -52 -34 -2 2 -7 649 -10 1438 -4 877 -10 1470 -16 1525
-25 216 -125 417 -300 599 -175 184 -396 308 -627 352 -58 11 -200 14 -675 14
l-602 0 -525 -501 c-289 -276 -537 -512 -551 -526 l-27 -25 -548 526 -549 526
-602 0 c-638 0 -669 -2 -813 -50 -277 -91 -540 -313 -679 -570 -53 -99 -97
-235 -110 -340 -7 -56 -11 -562 -11 -1487 0 -772 -3 -1403 -6 -1403 -4 0 -45
33 -93 72 -386 325 -737 723 -1024 1158 -507 772 -803 1651 -868 2585 -23 326
-2 821 47 1145 135 895 481 1718 1025 2440 722 958 1735 1644 2897 1960 287
78 687 146 992 169 166 12 612 13 775 1z m-285 -7315 c78 -308 199 -790 271
-1071 71 -281 129 -516 129 -522 0 -12 -529 -425 -545 -425 -15 0 -545 432
-545 444 0 6 70 284 155 617 85 334 208 813 272 1065 64 251 117 456 119 455
1 -2 66 -255 144 -563z"/>
<path d="M5704 10475 c-254 -28 -483 -95 -719 -209 -675 -328 -1133 -961
-1230 -1700 -19 -151 -19 -421 0 -573 116 -886 765 -1622 1630 -1848 204 -53
331 -69 560 -69 363 0 638 62 960 218 244 118 439 260 630 457 401 414 615
947 615 1529 0 583 -211 1109 -615 1529 -475 495 -1149 740 -1831 666z"/>
</g>
</svg>
